<?xml version="1.0" encoding="UTF-8"?>
<svg version="1.1" xmlns="http://www.w3.org/2000/svg" width="300" height="300">
<path d="M0 0 C4.77215651 3.47065928 8.46984326 7.59970612 11.25 12.8125 C12.24128006 19.13191035 12.18695345 25.54035204 8.625 31.0625 C5.53505246 34.55332857 1.9527635 37.02646699 -1.9296875 39.546875 C-2.58598145 39.9785347 -3.24227539 40.4101944 -3.91845703 40.85493469 C-5.31570478 41.77333124 -6.71432084 42.68964892 -8.11419678 43.60403442 C-10.20743768 44.97218118 -12.29611235 46.34700626 -14.38330078 47.72436523 C-18.66833357 50.55130947 -22.95875561 53.36999669 -27.25 56.1875 C-28.39119797 56.93709991 -28.39119797 56.93709991 -29.55545044 57.70184326 C-41.56629188 65.59104519 -53.58939631 73.4609879 -65.63574219 81.29589844 C-68.38839455 83.09021236 -71.13593561 84.89217117 -73.8828125 86.6953125 C-74.79619385 87.29327637 -75.7095752 87.89124023 -76.65063477 88.50732422 C-78.36370455 89.62884051 -80.07525687 90.7526799 -81.78491211 91.87939453 C-90.05111181 97.28082768 -96.13419106 100.40903515 -106.25 99 C-111.80824337 96.86432028 -116.09481972 93.01116868 -119.25 88 C-121.4077234 81.63570575 -121.69520142 76.38235025 -119.3671875 70.0703125 C-116.49856252 64.75432915 -112.81041308 61.80778882 -107.6875 58.8125 C-100.10873463 54.22714125 -92.73007542 49.37208934 -85.375 44.4375 C-83.03317734 42.86885628 -80.69063334 41.30129386 -78.34765625 39.734375 C-77.75990417 39.34128143 -77.1721521 38.94818787 -76.56658936 38.54318237 C-66.18510888 31.60837903 -55.71209576 24.81225291 -45.25 18 C-43.31898673 16.74092175 -41.3879963 15.48180845 -39.45703125 14.22265625 C-37.67980121 13.06492959 -35.90246381 11.90736771 -34.125 10.75 C-32.94466187 9.98079224 -32.94466187 9.98079224 -31.74047852 9.19604492 C-29.58051079 7.79179617 -27.41684136 6.39361584 -25.25 5 C-24.15026855 4.29133789 -24.15026855 4.29133789 -23.02832031 3.56835938 C-22.32030273 3.11783203 -21.61228516 2.66730469 -20.8828125 2.203125 C-19.94139404 1.60226074 -19.94139404 1.60226074 -18.98095703 0.98925781 C-13.34870529 -2.2296257 -6.03629853 -1.85732262 0 0 Z " fill="#3B4146" transform="translate(202.25,98)"/>
<path d="M0 0 C5.39986871 3.19877937 9.34748321 7.25686718 11.92578125 13.02734375 C13.39050087 19.55200388 12.97572828 25.28933375 9.61328125 31.08984375 C5.04591242 36.60088383 -1.39645564 40.08884963 -7.43017578 43.77612305 C-13.71002764 47.62071416 -19.83486532 51.67556412 -25.94921875 55.77734375 C-35.79233881 62.3715122 -45.68463338 68.88339087 -55.62109375 75.3359375 C-59.62265394 77.93530602 -63.61009317 80.55486637 -67.58984375 83.1875 C-69.12402954 84.19864868 -69.12402954 84.19864868 -70.68920898 85.23022461 C-72.62908262 86.50926044 -74.56630918 87.79232461 -76.50024414 89.08032227 C-94.35283017 100.82147519 -94.35283017 100.82147519 -103.38671875 99.08984375 C-110.57691196 96.84703119 -115.055798 92.11597959 -118.76171875 85.71484375 C-120.25615613 79.43820675 -120.10697815 73.77258109 -116.80737305 68.11376953 C-112.3214609 61.72294436 -105.26606364 57.50929993 -98.69921875 53.52734375 C-91.82352969 49.27077204 -85.03730657 44.91110534 -78.32421875 40.40234375 C-67.16661277 32.92081051 -55.92508197 25.57109039 -44.671875 18.234375 C-41.36557106 16.07603866 -38.06318368 13.91182341 -34.76171875 11.74609375 C-32.67838615 10.3815093 -30.59505284 9.01692592 -28.51171875 7.65234375 C-27.5489502 7.01949463 -26.58618164 6.38664551 -25.59423828 5.73461914 C-24.2578833 4.86051392 -24.2578833 4.86051392 -22.89453125 3.96875 C-22.1173877 3.45900635 -21.34024414 2.9492627 -20.53955078 2.42407227 C-14.17368651 -1.52120424 -7.2311946 -2.75755866 0 0 Z " fill="#3B4146" transform="translate(214.38671875,148.91015625)"/>
<path d="M0 0 C4.33403875 4.00261225 8.53213687 8.49646678 9.3359375 14.515625 C9.42796086 20.95726043 8.90382335 25.760783 5 31 C-1.15727483 36.47656623 -8.54609724 40.7189187 -15.4375 45.1875 C-16.60952135 45.95029602 -17.78139474 46.71331942 -18.953125 47.4765625 C-25.77731175 51.91903963 -32.61219316 56.34509844 -39.45361328 60.76098633 C-45.35598767 64.57385477 -51.23750476 68.41837088 -57.11737061 72.26583862 C-58.80026292 73.366993 -60.48334811 74.46785192 -62.16650391 75.56860352 C-63.26526855 76.28717529 -64.3640332 77.00574707 -65.49609375 77.74609375 C-66.58390137 78.45749512 -67.67170898 79.16889648 -68.79248047 79.90185547 C-70.88035055 81.26760029 -72.96793088 82.63378821 -75.05517578 84.00048828 C-77.82710977 85.81488725 -80.60081023 87.62655266 -83.375 89.4375 C-84.19460205 89.97487793 -85.0142041 90.51225586 -85.85864258 91.06591797 C-86.99209106 91.80479248 -86.99209106 91.80479248 -88.1484375 92.55859375 C-88.79989746 92.98454834 -89.45135742 93.41050293 -90.12255859 93.84936523 C-96.04971905 97.48196695 -101.09185913 97.85132416 -108 97 C-114.19316897 94.72950925 -117.64023226 90.49780175 -121 85 C-122.73883258 79.78350227 -123.06020206 73.98408093 -121.19921875 68.74609375 C-115.81709512 59.29501068 -104.78615714 53.79029086 -95.875 48.1875 C-93.63864576 46.76929641 -91.40296511 45.35003005 -89.16796875 43.9296875 C-88.09981934 43.25131836 -87.03166992 42.57294922 -85.93115234 41.87402344 C-82.31920452 39.56473546 -78.74373129 37.20642632 -75.1875 34.8125 C-68.97359977 30.63460675 -62.70772931 26.54178366 -56.4206543 22.47485352 C-51.72994969 19.43677271 -47.05307221 16.37926063 -42.39431763 13.29246521 C-39.7538949 11.5430819 -37.11083263 9.7977046 -34.46783447 8.05221558 C-33.161597 7.18781219 -31.85669115 6.32139298 -30.55316162 5.45291138 C-28.71587548 4.22908398 -26.87407166 3.01234534 -25.03125 1.796875 C-23.43120117 0.73484863 -23.43120117 0.73484863 -21.79882812 -0.34863281 C-14.93202106 -4.40019274 -6.83199179 -4.05900689 0 0 Z " fill="#F9B233" transform="translate(191,49)"/>
<path d="M0 0 C0.66 0.33 1.32 0.66 2 1 C0.35 2.98 -1.3 4.96 -3 7 C-3.99 6.67 -4.98 6.34 -6 6 C-4.02 4.02 -2.04 2.04 0 0 Z " fill="#595E67" transform="translate(104,210)"/>
<path d="M0 0 C3.63 0 7.26 0 11 0 C11 0.33 11 0.66 11 1 C7.37 1 3.74 1 0 1 C0 0.67 0 0.34 0 0 Z " fill="#FAA426" transform="translate(84,147)"/>
<path d="M0 0 C3.3 0 6.6 0 10 0 C10 0.33 10 0.66 10 1 C6.7 1 3.4 1 0 1 C0 0.67 0 0.34 0 0 Z " fill="#4E565C" transform="translate(201,146)"/>
<path d="M0 0 C0.33 0 0.66 0 1 0 C1 3.3 1 6.6 1 10 C0.67 10 0.34 10 0 10 C0 6.7 0 3.4 0 0 Z " fill="#FDB22C" transform="translate(67,121)"/>
<path d="M0 0 C3.3 0 6.6 0 10 0 C10 0.33 10 0.66 10 1 C6.7 1 3.4 1 0 1 C0 0.67 0 0.34 0 0 Z " fill="#363E49" transform="translate(188,95)"/>
<path d="M0 0 C0.33 0 0.66 0 1 0 C1 3.3 1 6.6 1 10 C0.67 10 0.34 10 0 10 C0 6.7 0 3.4 0 0 Z " fill="#FBB532" transform="translate(201,62)"/>
<path d="M0 0 C2.31 0 4.62 0 7 0 C7 0.33 7 0.66 7 1 C4.69 1 2.38 1 0 1 C0 0.67 0 0.34 0 0 Z " fill="#6B6F74" transform="translate(112,249)"/>
<path d="M0 0 C0.33 0 0.66 0 1 0 C1 1.98 1 3.96 1 6 C0.67 6 0.34 6 0 6 C0 4.02 0 2.04 0 0 Z " fill="#6B6F75" transform="translate(93,224)"/>
<path d="M0 0 C1.98 0 3.96 0 6 0 C6 0.33 6 0.66 6 1 C4.02 1 2.04 1 0 1 C0 0.67 0 0.34 0 0 Z " fill="#FBC261" transform="translate(177,44)"/>
<path d="M0 0 C1.65 0 3.3 0 5 0 C5 0.33 5 0.66 5 1 C3.35 1 1.7 1 0 1 C0 0.67 0 0.34 0 0 Z " fill="#33373B" transform="translate(103,198)"/>
<path d="M0 0 C0.33 0 0.66 0 1 0 C1 1.65 1 3.3 1 5 C0.67 5 0.34 5 0 5 C0 3.35 0 1.7 0 0 Z " fill="#666B70" transform="translate(228,166)"/>
<path d="M0 0 C4 1 4 1 4 1 Z " fill="#33383F" transform="translate(97,198)"/>
<path d="M0 0 C1 4 1 4 1 4 Z " fill="#373D44" transform="translate(80,179)"/>
<path d="M0 0 C1 4 1 4 1 4 Z " fill="#797F82" transform="translate(215,115)"/>
<path d="M0 0 C3 1 3 1 3 1 Z " fill="#474F58" transform="translate(108,248)"/>
<path d="" fill="#414650" transform="translate(0,0)"/>
<path d="" fill="#414652" transform="translate(0,0)"/>
<path d="" fill="#38414C" transform="translate(0,0)"/>
<path d="" fill="#FBAB3E" transform="translate(0,0)"/>
<path d="" fill="#33383B" transform="translate(0,0)"/>
<path d="" fill="#262B2F" transform="translate(0,0)"/>
<path d="M0 0 C3 1 3 1 3 1 Z " fill="#FDBF41" transform="translate(184,45)"/>
<path d="M0 0 C2 1 2 1 2 1 Z " fill="#444B52" transform="translate(121,248)"/>
<path d="M0 0 C2 1 2 1 2 1 Z " fill="#475057" transform="translate(106,247)"/>
<path d="M0 0 C2 1 2 1 2 1 Z " fill="#36373A" transform="translate(125,246)"/>
<path d="M0 0 C2 1 2 1 2 1 Z " fill="#44464F" transform="translate(136,239)"/>
<path d="M0 0 C2 1 2 1 2 1 Z " fill="#393A3C" transform="translate(139,237)"/>
<path d="" fill="#3F474E" transform="translate(0,0)"/>
<path d="M0 0 C2 1 2 1 2 1 Z " fill="#343638" transform="translate(142,235)"/>
<path d="M0 0 C2 1 2 1 2 1 Z " fill="#393B3D" transform="translate(145,233)"/>
<path d="M0 0 C2 1 2 1 2 1 Z " fill="#343638" transform="translate(148,231)"/>
<path d="M0 0 C2 1 2 1 2 1 Z " fill="#4B5056" transform="translate(159,224)"/>
<path d="M0 0 C2 1 2 1 2 1 Z " fill="#3E3F41" transform="translate(165,220)"/>
<path d="" fill="#3A4249" transform="translate(0,0)"/>
<path d="M0 0 C2 1 2 1 2 1 Z " fill="#36383A" transform="translate(168,218)"/>
<path d="" fill="#4C525C" transform="translate(0,0)"/>
<path d="M0 0 C2 1 2 1 2 1 Z " fill="#36373A" transform="translate(171,216)"/>
<path d="M0 0 C2 1 2 1 2 1 Z " fill="#4A4F5B" transform="translate(104,208)"/>
<path d="M0 0 C2 1 2 1 2 1 Z " fill="#464E58" transform="translate(107,206)"/>
<path d="M0 0 C2 1 2 1 2 1 Z " fill="#3E3F42" transform="translate(188,205)"/>
<path d="M0 0 C2 1 2 1 2 1 Z " fill="#485159" transform="translate(110,204)"/>
<path d="M0 0 C2 1 2 1 2 1 Z " fill="#3A3B3D" transform="translate(191,203)"/>
<path d="M0 0 C2 1 2 1 2 1 Z " fill="#3E3E40" transform="translate(194,201)"/>
<path d="M0 0 C2 1 2 1 2 1 Z " fill="#3F4041" transform="translate(197,199)"/>
<path d="M0 0 C2 1 2 1 2 1 Z " fill="#3A3C3E" transform="translate(200,197)"/>
<path d="M0 0 C2 1 2 1 2 1 Z " fill="#33363C" transform="translate(121,197)"/>
<path d="M0 0 C2 1 2 1 2 1 Z " fill="#282C2E" transform="translate(108,197)"/>
<path d="M0 0 C2 1 2 1 2 1 Z " fill="#414A50" transform="translate(94,197)"/>
<path d="M0 0 C2 1 2 1 2 1 Z " fill="#2E3234" transform="translate(92,196)"/>
<path d="M0 0 C2 1 2 1 2 1 Z " fill="#36383A" transform="translate(203,195)"/>
<path d="M0 0 C2 1 2 1 2 1 Z " fill="#3B3D44" transform="translate(124,195)"/>
<path d="M0 0 C2 1 2 1 2 1 Z " fill="#3E4346" transform="translate(90,195)"/>
<path d="M0 0 C2 1 2 1 2 1 Z " fill="#383C42" transform="translate(127,193)"/>
<path d="M0 0 C2 1 2 1 2 1 Z " fill="#484F51" transform="translate(117,192)"/>
<path d="M0 0 C2 1 2 1 2 1 Z " fill="#373B41" transform="translate(130,191)"/>
<path d="M0 0 C2 1 2 1 2 1 Z " fill="#3C3E40" transform="translate(120,190)"/>
<path d="M0 0 C2 1 2 1 2 1 Z " fill="#394249" transform="translate(133,189)"/>
<path d="M0 0 C2 1 2 1 2 1 Z " fill="#3A3B3D" transform="translate(123,188)"/>
<path d="M0 0 C2 1 2 1 2 1 Z " fill="#3D454C" transform="translate(136,187)"/>
<path d="M0 0 C2 1 2 1 2 1 Z " fill="#3F454C" transform="translate(217,186)"/>
<path d="M0 0 C2 1 2 1 2 1 Z " fill="#393B3D" transform="translate(126,186)"/>
<path d="M0 0 C2 1 2 1 2 1 Z " fill="#535A62" transform="translate(139,185)"/>
<path d="" fill="#2B2E33" transform="translate(0,0)"/>
<path d="" fill="#4B5157" transform="translate(0,0)"/>
<path d="M0 0 C2 1 2 1 2 1 Z " fill="#383B40" transform="translate(150,178)"/>
<path d="" fill="#4C535B" transform="translate(0,0)"/>
<path d="M0 0 C2 1 2 1 2 1 Z " fill="#444548" transform="translate(140,177)"/>
<path d="M0 0 C2 1 2 1 2 1 Z " fill="#393D40" transform="translate(153,176)"/>
<path d="M0 0 C2 1 2 1 2 1 Z " fill="#474748" transform="translate(143,175)"/>
<path d="" fill="#353F48" transform="translate(0,0)"/>
<path d="M0 0 C2 1 2 1 2 1 Z " fill="#3D4147" transform="translate(156,174)"/>
<path d="M0 0 C2 1 2 1 2 1 Z " fill="#3C3D3F" transform="translate(146,173)"/>
<path d="M0 0 C2 1 2 1 2 1 Z " fill="#3B444C" transform="translate(159,172)"/>
<path d="M0 0 C2 1 2 1 2 1 Z " fill="#383939" transform="translate(149,171)"/>
<path d="M0 0 C2 1 2 1 2 1 Z " fill="#525961" transform="translate(162,170)"/>
<path d="" fill="#575B67" transform="translate(0,0)"/>
<path d="" fill="#474F5A" transform="translate(0,0)"/>
<path d="" fill="#3F474F" transform="translate(0,0)"/>
<path d="" fill="#4E565B" transform="translate(0,0)"/>
<path d="M0 0 C2 1 2 1 2 1 Z " fill="#474C51" transform="translate(169,158)"/>
<path d="M0 0 C2 1 2 1 2 1 Z " fill="#3D4146" transform="translate(172,156)"/>
<path d="M0 0 C2 1 2 1 2 1 Z " fill="#3B3E43" transform="translate(185,155)"/>
<path d="M0 0 C2 1 2 1 2 1 Z " fill="#3C3D3F" transform="translate(175,154)"/>
<path d="M0 0 C2 1 2 1 2 1 Z " fill="#3D4045" transform="translate(188,153)"/>
<path d="M0 0 C2 1 2 1 2 1 Z " fill="#363839" transform="translate(178,152)"/>
<path d="M0 0 C2 1 2 1 2 1 Z " fill="#414952" transform="translate(191,151)"/>
<path d="M0 0 C2 1 2 1 2 1 Z " fill="#343939" transform="translate(216,149)"/>
<path d="M0 0 C2 1 2 1 2 1 Z " fill="#474C57" transform="translate(194,149)"/>
<path d="M0 0 C2 1 2 1 2 1 Z " fill="#384344" transform="translate(212,147)"/>
<path d="M0 0 C2 1 2 1 2 1 Z " fill="#3B4751" transform="translate(198,147)"/>
<path d="M0 0 C2 1 2 1 2 1 Z " fill="#F9A420" transform="translate(95,146)"/>
<path d="M0 0 C2 1 2 1 2 1 Z " fill="#FDAD25" transform="translate(81,146)"/>
<path d="M0 0 C2 1 2 1 2 1 Z " fill="#FCA02B" transform="translate(79,145)"/>
<path d="M0 0 C2 1 2 1 2 1 Z " fill="#383A3F" transform="translate(111,144)"/>
<path d="M0 0 C2 1 2 1 2 1 Z " fill="#F3AA39" transform="translate(99,144)"/>
<path d="M0 0 C2 1 2 1 2 1 Z " fill="#F4A636" transform="translate(102,142)"/>
<path d="M0 0 C2 1 2 1 2 1 Z " fill="#3C4044" transform="translate(117,140)"/>
<path d="M0 0 C2 1 2 1 2 1 Z " fill="#F69C35" transform="translate(105,140)"/>
<path d="M0 0 C2 1 2 1 2 1 Z " fill="#3D4144" transform="translate(120,138)"/>
<path d="M0 0 C2 1 2 1 2 1 Z " fill="#4E5156" transform="translate(201,137)"/>
<path d="M0 0 C2 1 2 1 2 1 Z " fill="#464D55" transform="translate(123,136)"/>
<path d="M0 0 C2 1 2 1 2 1 Z " fill="#3E4143" transform="translate(204,135)"/>
<path d="" fill="#FDB93C" transform="translate(0,0)"/>
<path d="M0 0 C2 1 2 1 2 1 Z " fill="#50565F" transform="translate(126,134)"/>
<path d="M0 0 C2 1 2 1 2 1 Z " fill="#F99931" transform="translate(114,134)"/>
<path d="M0 0 C2 1 2 1 2 1 Z " fill="#34383D" transform="translate(134,129)"/>
<path d="M0 0 C2 1 2 1 2 1 Z " fill="#373B3F" transform="translate(137,127)"/>
<path d="M0 0 C2 1 2 1 2 1 Z " fill="#343A40" transform="translate(140,125)"/>
<path d="M0 0 C2 1 2 1 2 1 Z " fill="#3E4246" transform="translate(143,123)"/>
<path d="M0 0 C2 1 2 1 2 1 Z " fill="#F8A936" transform="translate(131,123)"/>
<path d="M0 0 C2 1 2 1 2 1 Z " fill="#4E565E" transform="translate(146,121)"/>
<path d="M0 0 C2 1 2 1 2 1 Z " fill="#F4A335" transform="translate(134,121)"/>
<path d="M0 0 C2 1 2 1 2 1 Z " fill="#F2A133" transform="translate(137,119)"/>
<path d="" fill="#FDB62F" transform="translate(0,0)"/>
<path d="M0 0 C2 1 2 1 2 1 Z " fill="#F69E31" transform="translate(140,117)"/>
<path d="" fill="#FD9F2E" transform="translate(0,0)"/>
<path d="M0 0 C2 1 2 1 2 1 Z " fill="#383B40" transform="translate(160,112)"/>
<path d="M0 0 C2 1 2 1 2 1 Z " fill="#F6B241" transform="translate(148,112)"/>
<path d="M0 0 C2 1 2 1 2 1 Z " fill="#35383F" transform="translate(163,110)"/>
<path d="M0 0 C2 1 2 1 2 1 Z " fill="#F2A23A" transform="translate(151,110)"/>
<path d="" fill="#3C4247" transform="translate(0,0)"/>
<path d="M0 0 C2 1 2 1 2 1 Z " fill="#3B3F43" transform="translate(166,108)"/>
<path d="M0 0 C2 1 2 1 2 1 Z " fill="#F5A131" transform="translate(154,108)"/>
<path d="" fill="#52575B" transform="translate(0,0)"/>
<path d="M0 0 C2 1 2 1 2 1 Z " fill="#FDAA38" transform="translate(77,107)"/>
<path d="M0 0 C2 1 2 1 2 1 Z " fill="#4F555D" transform="translate(169,106)"/>
<path d="M0 0 C2 1 2 1 2 1 Z " fill="#FBAA3C" transform="translate(80,105)"/>
<path d="M0 0 C2 1 2 1 2 1 Z " fill="#FDB044" transform="translate(83,103)"/>
<path d="M0 0 C2 1 2 1 2 1 Z " fill="#FDBA48" transform="translate(86,101)"/>
<path d="M0 0 C2 1 2 1 2 1 Z " fill="#F6B03F" transform="translate(168,99)"/>
<path d="M0 0 C2 1 2 1 2 1 Z " fill="#FCB542" transform="translate(89,99)"/>
<path d="M0 0 C2 1 2 1 2 1 Z " fill="#434752" transform="translate(183,97)"/>
<path d="M0 0 C2 1 2 1 2 1 Z " fill="#F3B649" transform="translate(171,97)"/>
<path d="M0 0 C2 1 2 1 2 1 Z " fill="#FCBA48" transform="translate(92,97)"/>
<path d="M0 0 C2 1 2 1 2 1 Z " fill="#353E45" transform="translate(199,96)"/>
<path d="M0 0 C2 1 2 1 2 1 Z " fill="#5D626D" transform="translate(185,96)"/>
<path d="M0 0 C2 1 2 1 2 1 Z " fill="#F4A837" transform="translate(174,95)"/>
<path d="M0 0 C2 1 2 1 2 1 Z " fill="#FDA037" transform="translate(106,88)"/>
<path d="M0 0 C2 1 2 1 2 1 Z " fill="#FEAA3E" transform="translate(109,86)"/>
<path d="M0 0 C2 1 2 1 2 1 Z " fill="#F7AA32" transform="translate(191,84)"/>
<path d="M0 0 C2 1 2 1 2 1 Z " fill="#FCB140" transform="translate(112,84)"/>
<path d="M0 0 C2 1 2 1 2 1 Z " fill="#FCB640" transform="translate(115,82)"/>
<path d="M0 0 C2 1 2 1 2 1 Z " fill="#FCB53F" transform="translate(118,80)"/>
<path d="" fill="#F4B546" transform="translate(0,0)"/>
<path d="" fill="#F59E25" transform="translate(0,0)"/>
<path d="M0 0 C2 1 2 1 2 1 Z " fill="#FCA337" transform="translate(129,73)"/>
<path d="M0 0 C2 1 2 1 2 1 Z " fill="#FDB140" transform="translate(132,71)"/>
<path d="M0 0 C2 1 2 1 2 1 Z " fill="#FDB140" transform="translate(135,69)"/>
<path d="M0 0 C2 1 2 1 2 1 Z " fill="#FEBA41" transform="translate(138,67)"/>
<path d="" fill="#FDC03F" transform="translate(0,0)"/>
<path d="" fill="#FF9F25" transform="translate(0,0)"/>
<path d="M0 0 C2 1 2 1 2 1 Z " fill="#FD9F36" transform="translate(158,54)"/>
<path d="M0 0 C2 1 2 1 2 1 Z " fill="#FEB03B" transform="translate(161,52)"/>
<path d="M0 0 C2 1 2 1 2 1 Z " fill="#FCA93B" transform="translate(164,50)"/>
<path d="M0 0 C2 1 2 1 2 1 Z " fill="#FDC03B" transform="translate(189,47)"/>
<path d="M0 0 C2 1 2 1 2 1 Z " fill="#FFBD40" transform="translate(187,46)"/>
<path d="M0 0 C2 1 2 1 2 1 Z " fill="#FFB426" transform="translate(173,45)"/>
<path d="" fill="#585D65" transform="translate(0,0)"/>
<path d="" fill="#2F3B44" transform="translate(0,0)"/>
<path d="" fill="#30373E" transform="translate(0,0)"/>
<path d="" fill="#5D6A6D" transform="translate(0,0)"/>
<path d="" fill="#696E72" transform="translate(0,0)"/>
<path d="" fill="#36454A" transform="translate(0,0)"/>
<path d="" fill="#333B42" transform="translate(0,0)"/>
<path d="" fill="#000714" transform="translate(0,0)"/>
<path d="" fill="#5B5F65" transform="translate(0,0)"/>
<path d="" fill="#000001" transform="translate(0,0)"/>
<path d="" fill="#22262F" transform="translate(0,0)"/>
<path d="" fill="#00050E" transform="translate(0,0)"/>
<path d="" fill="#50565B" transform="translate(0,0)"/>
<path d="" fill="#3E474F" transform="translate(0,0)"/>
<path d="" fill="#606A70" transform="translate(0,0)"/>
<path d="" fill="#494C53" transform="translate(0,0)"/>
<path d="" fill="#323B42" transform="translate(0,0)"/>
<path d="" fill="#46494D" transform="translate(0,0)"/>
<path d="" fill="#3D4347" transform="translate(0,0)"/>
<path d="" fill="#2F353A" transform="translate(0,0)"/>
<path d="" fill="#252A34" transform="translate(0,0)"/>
<path d="" fill="#66696D" transform="translate(0,0)"/>
<path d="" fill="#172025" transform="translate(0,0)"/>
<path d="" fill="#50555C" transform="translate(0,0)"/>
<path d="" fill="#0D171A" transform="translate(0,0)"/>
<path d="" fill="#55595F" transform="translate(0,0)"/>
<path d="" fill="#575D61" transform="translate(0,0)"/>
<path d="" fill="#000001" transform="translate(0,0)"/>
<path d="" fill="#505558" transform="translate(0,0)"/>
<path d="" fill="#484B52" transform="translate(0,0)"/>
<path d="" fill="#2B3137" transform="translate(0,0)"/>
<path d="" fill="#363B41" transform="translate(0,0)"/>
<path d="" fill="#545B66" transform="translate(0,0)"/>
<path d="" fill="#6B6D71" transform="translate(0,0)"/>
<path d="" fill="#09131F" transform="translate(0,0)"/>
<path d="" fill="#2C3138" transform="translate(0,0)"/>
<path d="" fill="#65686F" transform="translate(0,0)"/>
<path d="" fill="#282C35" transform="translate(0,0)"/>
<path d="" fill="#5E6167" transform="translate(0,0)"/>
<path d="" fill="#0C0D12" transform="translate(0,0)"/>
<path d="" fill="#141820" transform="translate(0,0)"/>
<path d="" fill="#575E63" transform="translate(0,0)"/>
<path d="" fill="#595C61" transform="translate(0,0)"/>
<path d="" fill="#00030C" transform="translate(0,0)"/>
<path d="" fill="#4D5460" transform="translate(0,0)"/>
<path d="" fill="#54565D" transform="translate(0,0)"/>
<path d="" fill="#515860" transform="translate(0,0)"/>
<path d="" fill="#4A4D56" transform="translate(0,0)"/>
<path d="" fill="#5F656F" transform="translate(0,0)"/>
<path d="" fill="#41444C" transform="translate(0,0)"/>
<path d="" fill="#212933" transform="translate(0,0)"/>
<path d="" fill="#676B78" transform="translate(0,0)"/>
<path d="" fill="#4B4B51" transform="translate(0,0)"/>
<path d="" fill="#343A44" transform="translate(0,0)"/>
<path d="" fill="#6A6F79" transform="translate(0,0)"/>
<path d="" fill="#474B51" transform="translate(0,0)"/>
<path d="" fill="#464C56" transform="translate(0,0)"/>
<path d="" fill="#454B50" transform="translate(0,0)"/>
<path d="" fill="#4C505C" transform="translate(0,0)"/>
<path d="" fill="#4B5357" transform="translate(0,0)"/>
<path d="" fill="#64666A" transform="translate(0,0)"/>
<path d="" fill="#3D4246" transform="translate(0,0)"/>
<path d="" fill="#4D525F" transform="translate(0,0)"/>
<path d="" fill="#343C3F" transform="translate(0,0)"/>
<path d="" fill="#566268" transform="translate(0,0)"/>
<path d="" fill="#606368" transform="translate(0,0)"/>
<path d="" fill="#5A5F61" transform="translate(0,0)"/>
<path d="" fill="#2C393D" transform="translate(0,0)"/>
<path d="" fill="#12191E" transform="translate(0,0)"/>
<path d="" fill="#3F4753" transform="translate(0,0)"/>
<path d="" fill="#010C10" transform="translate(0,0)"/>
<path d="" fill="#686E70" transform="translate(0,0)"/>
<path d="" fill="#52595B" transform="translate(0,0)"/>
<path d="" fill="#06151B" transform="translate(0,0)"/>
<path d="" fill="#32393B" transform="translate(0,0)"/>
<path d="" fill="#4E565C" transform="translate(0,0)"/>
<path d="" fill="#323F47" transform="translate(0,0)"/>
<path d="" fill="#676E6F" transform="translate(0,0)"/>
<path d="" fill="#4D5256" transform="translate(0,0)"/>
<path d="" fill="#556067" transform="translate(0,0)"/>
<path d="" fill="#232C32" transform="translate(0,0)"/>
<path d="" fill="#545B65" transform="translate(0,0)"/>
<path d="" fill="#788189" transform="translate(0,0)"/>
<path d="" fill="#51555C" transform="translate(0,0)"/>
<path d="" fill="#383C3F" transform="translate(0,0)"/>
<path d="" fill="#565F67" transform="translate(0,0)"/>
<path d="" fill="#4C535A" transform="translate(0,0)"/>
<path d="" fill="#484E54" transform="translate(0,0)"/>
<path d="" fill="#3E454A" transform="translate(0,0)"/>
<path d="" fill="#1C2328" transform="translate(0,0)"/>
<path d="" fill="#5E6770" transform="translate(0,0)"/>
<path d="" fill="#6C6F71" transform="translate(0,0)"/>
<path d="" fill="#000000" transform="translate(0,0)"/>
<path d="" fill="#202A32" transform="translate(0,0)"/>
<path d="" fill="#393E41" transform="translate(0,0)"/>
<path d="" fill="#000614" transform="translate(0,0)"/>
<path d="" fill="#5C636D" transform="translate(0,0)"/>
<path d="" fill="#67686B" transform="translate(0,0)"/>
<path d="" fill="#252E34" transform="translate(0,0)"/>
<path d="" fill="#373E48" transform="translate(0,0)"/>
<path d="" fill="#383D42" transform="translate(0,0)"/>
<path d="" fill="#575F62" transform="translate(0,0)"/>
<path d="" fill="#6D767E" transform="translate(0,0)"/>
<path d="" fill="#626366" transform="translate(0,0)"/>
<path d="" fill="#48525A" transform="translate(0,0)"/>
<path d="" fill="#1B2127" transform="translate(0,0)"/>
<path d="" fill="#595C60" transform="translate(0,0)"/>
<path d="" fill="#4B535B" transform="translate(0,0)"/>
<path d="" fill="#56595D" transform="translate(0,0)"/>
<path d="" fill="#50585F" transform="translate(0,0)"/>
<path d="" fill="#54565C" transform="translate(0,0)"/>
<path d="" fill="#4C5460" transform="translate(0,0)"/>
<path d="" fill="#494C53" transform="translate(0,0)"/>
<path d="" fill="#575E6B" transform="translate(0,0)"/>
<path d="" fill="#41444A" transform="translate(0,0)"/>
<path d="" fill="#5E676E" transform="translate(0,0)"/>
<path d="" fill="#6B6E73" transform="translate(0,0)"/>
<path d="" fill="#252C36" transform="translate(0,0)"/>
<path d="" fill="#2E3438" transform="translate(0,0)"/>
<path d="" fill="#5C606B" transform="translate(0,0)"/>
<path d="" fill="#6A6C72" transform="translate(0,0)"/>
<path d="" fill="#252B38" transform="translate(0,0)"/>
<path d="" fill="#31373D" transform="translate(0,0)"/>
<path d="" fill="#5F6672" transform="translate(0,0)"/>
<path d="" fill="#67696F" transform="translate(0,0)"/>
<path d="" fill="#3E4552" transform="translate(0,0)"/>
<path d="" fill="#3E434D" transform="translate(0,0)"/>
<path d="" fill="#252B32" transform="translate(0,0)"/>
<path d="" fill="#000000" transform="translate(0,0)"/>
<path d="" fill="#686F79" transform="translate(0,0)"/>
<path d="" fill="#55595F" transform="translate(0,0)"/>
<path d="" fill="#3F444D" transform="translate(0,0)"/>
<path d="" fill="#101519" transform="translate(0,0)"/>
<path d="" fill="#6D737F" transform="translate(0,0)"/>
<path d="" fill="#666C74" transform="translate(0,0)"/>
<path d="" fill="#5B5E63" transform="translate(0,0)"/>
<path d="" fill="#6A707B" transform="translate(0,0)"/>
<path d="" fill="#3E4351" transform="translate(0,0)"/>
<path d="" fill="#1B1F28" transform="translate(0,0)"/>
<path d="" fill="#7A808B" transform="translate(0,0)"/>
<path d="" fill="#686D78" transform="translate(0,0)"/>
<path d="" fill="#5C5F63" transform="translate(0,0)"/>
<path d="" fill="#1D252D" transform="translate(0,0)"/>
<path d="" fill="#1E2830" transform="translate(0,0)"/>
<path d="" fill="#414752" transform="translate(0,0)"/>
<path d="" fill="#5C626E" transform="translate(0,0)"/>
<path d="" fill="#676D78" transform="translate(0,0)"/>
<path d="" fill="#54595E" transform="translate(0,0)"/>
<path d="" fill="#2B323E" transform="translate(0,0)"/>
<path d="" fill="#555D62" transform="translate(0,0)"/>
<path d="" fill="#49505A" transform="translate(0,0)"/>
<path d="" fill="#656D77" transform="translate(0,0)"/>
<path d="" fill="#272F37" transform="translate(0,0)"/>
<path d="" fill="#41474D" transform="translate(0,0)"/>
<path d="" fill="#3D4650" transform="translate(0,0)"/>
<path d="" fill="#000000" transform="translate(0,0)"/>
<path d="" fill="#505862" transform="translate(0,0)"/>
<path d="" fill="#656D74" transform="translate(0,0)"/>
<path d="" fill="#3A4146" transform="translate(0,0)"/>
<path d="" fill="#2C323D" transform="translate(0,0)"/>
<path d="" fill="#000000" transform="translate(0,0)"/>
<path d="" fill="#505660" transform="translate(0,0)"/>
<path d="" fill="#636C78" transform="translate(0,0)"/>
<path d="" fill="#000000" transform="translate(0,0)"/>
<path d="" fill="#3D4147" transform="translate(0,0)"/>
<path d="" fill="#343D45" transform="translate(0,0)"/>
<path d="" fill="#344144" transform="translate(0,0)"/>
<path d="" fill="#525A61" transform="translate(0,0)"/>
<path d="" fill="#6F7277" transform="translate(0,0)"/>
<path d="" fill="#6B747F" transform="translate(0,0)"/>
<path d="" fill="#45494E" transform="translate(0,0)"/>
<path d="" fill="#3F4851" transform="translate(0,0)"/>
<path d="" fill="#576262" transform="translate(0,0)"/>
<path d="" fill="#646A72" transform="translate(0,0)"/>
<path d="" fill="#686971" transform="translate(0,0)"/>
<path d="" fill="#666F7A" transform="translate(0,0)"/>
<path d="" fill="#3D4047" transform="translate(0,0)"/>
<path d="" fill="#424B55" transform="translate(0,0)"/>
<path d="" fill="#64696D" transform="translate(0,0)"/>
<path d="" fill="#6E767F" transform="translate(0,0)"/>
<path d="" fill="#252B30" transform="translate(0,0)"/>
<path d="" fill="#494B56" transform="translate(0,0)"/>
<path d="" fill="#F7B652" transform="translate(0,0)"/>
<path d="" fill="#65686B" transform="translate(0,0)"/>
<path d="" fill="#FFA30A" transform="translate(0,0)"/>
<path d="" fill="#212428" transform="translate(0,0)"/>
<path d="" fill="#383E48" transform="translate(0,0)"/>
<path d="" fill="#F3AC3B" transform="translate(0,0)"/>
<path d="" fill="#FDC258" transform="translate(0,0)"/>
<path d="" fill="#5E6266" transform="translate(0,0)"/>
<path d="" fill="#727881" transform="translate(0,0)"/>
<path d="" fill="#FFBF4A" transform="translate(0,0)"/>
<path d="" fill="#252E33" transform="translate(0,0)"/>
<path d="" fill="#484D55" transform="translate(0,0)"/>
<path d="" fill="#FAAE3B" transform="translate(0,0)"/>
<path d="" fill="#FFBD41" transform="translate(0,0)"/>
<path d="" fill="#5C5F63" transform="translate(0,0)"/>
<path d="" fill="#FABB41" transform="translate(0,0)"/>
<path d="" fill="#262930" transform="translate(0,0)"/>
<path d="" fill="#50545D" transform="translate(0,0)"/>
<path d="" fill="#FDA82D" transform="translate(0,0)"/>
<path d="" fill="#FFC34D" transform="translate(0,0)"/>
<path d="" fill="#585C61" transform="translate(0,0)"/>
<path d="" fill="#FAB759" transform="translate(0,0)"/>
<path d="" fill="#FECD6E" transform="translate(0,0)"/>
<path d="" fill="#586068" transform="translate(0,0)"/>
<path d="" fill="#F7A827" transform="translate(0,0)"/>
<path d="" fill="#505459" transform="translate(0,0)"/>
<path d="" fill="#F4BB64" transform="translate(0,0)"/>
<path d="" fill="#FFB010" transform="translate(0,0)"/>
<path d="" fill="#535B64" transform="translate(0,0)"/>
<path d="" fill="#F8AB30" transform="translate(0,0)"/>
<path d="" fill="#545C61" transform="translate(0,0)"/>
<path d="" fill="#35393F" transform="translate(0,0)"/>
<path d="" fill="#565E68" transform="translate(0,0)"/>
<path d="" fill="#F6A927" transform="translate(0,0)"/>
<path d="" fill="#21282E" transform="translate(0,0)"/>
<path d="" fill="#3B434A" transform="translate(0,0)"/>
<path d="" fill="#F5B75F" transform="translate(0,0)"/>
<path d="" fill="#242930" transform="translate(0,0)"/>
<path d="" fill="#6A6F78" transform="translate(0,0)"/>
<path d="" fill="#F1A728" transform="translate(0,0)"/>
<path d="" fill="#444D53" transform="translate(0,0)"/>
<path d="" fill="#3E444E" transform="translate(0,0)"/>
<path d="" fill="#F7B453" transform="translate(0,0)"/>
<path d="" fill="#696E73" transform="translate(0,0)"/>
<path d="" fill="#F6A21A" transform="translate(0,0)"/>
<path d="" fill="#353F49" transform="translate(0,0)"/>
<path d="" fill="#F5B34F" transform="translate(0,0)"/>
<path d="" fill="#485056" transform="translate(0,0)"/>
<path d="" fill="#F3A017" transform="translate(0,0)"/>
<path d="" fill="#464F57" transform="translate(0,0)"/>
<path d="" fill="#F7B34E" transform="translate(0,0)"/>
<path d="" fill="#303740" transform="translate(0,0)"/>
<path d="" fill="#F29B00" transform="translate(0,0)"/>
<path d="" fill="#4E5760" transform="translate(0,0)"/>
<path d="" fill="#F7B345" transform="translate(0,0)"/>
<path d="" fill="#535B61" transform="translate(0,0)"/>
<path d="" fill="#F6B03D" transform="translate(0,0)"/>
<path d="" fill="#555E68" transform="translate(0,0)"/>
<path d="" fill="#F7B03D" transform="translate(0,0)"/>
<path d="" fill="#222D35" transform="translate(0,0)"/>
<path d="" fill="#5A656D" transform="translate(0,0)"/>
<path d="" fill="#F9AB35" transform="translate(0,0)"/>
<path d="" fill="#292E39" transform="translate(0,0)"/>
<path d="" fill="#677079" transform="translate(0,0)"/>
<path d="" fill="#F5AA2E" transform="translate(0,0)"/>
<path d="" fill="#FCC04C" transform="translate(0,0)"/>
<path d="" fill="#394349" transform="translate(0,0)"/>
<path d="" fill="#F8B250" transform="translate(0,0)"/>
<path d="" fill="#69717B" transform="translate(0,0)"/>
<path d="" fill="#F7A314" transform="translate(0,0)"/>
<path d="" fill="#414751" transform="translate(0,0)"/>
<path d="" fill="#F7B148" transform="translate(0,0)"/>
<path d="" fill="#FFB830" transform="translate(0,0)"/>
<path d="" fill="#FF9F00" transform="translate(0,0)"/>
<path d="" fill="#4B525D" transform="translate(0,0)"/>
<path d="" fill="#F3AE42" transform="translate(0,0)"/>
<path d="" fill="#FF8B00" transform="translate(0,0)"/>
<path d="" fill="#FF8000" transform="translate(0,0)"/>
<path d="" fill="#4E535D" transform="translate(0,0)"/>
<path d="" fill="#F4AC3F" transform="translate(0,0)"/>
<path d="" fill="#FFA000" transform="translate(0,0)"/>
<path d="" fill="#FBB33A" transform="translate(0,0)"/>
<path d="" fill="#595E68" transform="translate(0,0)"/>
<path d="" fill="#F6AB38" transform="translate(0,0)"/>
<path d="" fill="#FAB85C" transform="translate(0,0)"/>
<path d="" fill="#FEB841" transform="translate(0,0)"/>
<path d="" fill="#4F555A" transform="translate(0,0)"/>
<path d="" fill="#59606A" transform="translate(0,0)"/>
<path d="" fill="#F6A625" transform="translate(0,0)"/>
<path d="" fill="#000008" transform="translate(0,0)"/>
<path d="" fill="#222B36" transform="translate(0,0)"/>
<path d="" fill="#F6B554" transform="translate(0,0)"/>
<path d="" fill="#FDBB48" transform="translate(0,0)"/>
<path d="" fill="#5C656F" transform="translate(0,0)"/>
<path d="" fill="#F99F04" transform="translate(0,0)"/>
<path d="" fill="#8A9194" transform="translate(0,0)"/>
<path d="" fill="#3A3B46" transform="translate(0,0)"/>
<path d="" fill="#F6B44B" transform="translate(0,0)"/>
<path d="" fill="#FCBB4F" transform="translate(0,0)"/>
<path d="" fill="#7B8288" transform="translate(0,0)"/>
<path d="" fill="#686F7B" transform="translate(0,0)"/>
<path d="" fill="#F79E01" transform="translate(0,0)"/>
<path d="" fill="#424754" transform="translate(0,0)"/>
<path d="" fill="#F7B445" transform="translate(0,0)"/>
<path d="" fill="#FEBB48" transform="translate(0,0)"/>
<path d="" fill="#151E28" transform="translate(0,0)"/>
<path d="" fill="#6A6F7A" transform="translate(0,0)"/>
<path d="" fill="#525C62" transform="translate(0,0)"/>
<path d="" fill="#303644" transform="translate(0,0)"/>
<path d="" fill="#F4B44F" transform="translate(0,0)"/>
<path d="" fill="#FEBB49" transform="translate(0,0)"/>
<path d="" fill="#4A5258" transform="translate(0,0)"/>
<path d="" fill="#F5B84D" transform="translate(0,0)"/>
<path d="" fill="#FDBC4D" transform="translate(0,0)"/>
<path d="" fill="#FFAC17" transform="translate(0,0)"/>
<path d="" fill="#F8AE32" transform="translate(0,0)"/>
<path d="" fill="#FEC563" transform="translate(0,0)"/>
<path d="" fill="#F3B964" transform="translate(0,0)"/>
<path d="" fill="#FFA80D" transform="translate(0,0)"/>
<path d="" fill="#F9AA2B" transform="translate(0,0)"/>
<path d="" fill="#FCC668" transform="translate(0,0)"/>
<path d="" fill="#F7B759" transform="translate(0,0)"/>
<path d="" fill="#FDB12D" transform="translate(0,0)"/>
<path d="" fill="#FAA412" transform="translate(0,0)"/>
<path d="" fill="#FAC362" transform="translate(0,0)"/>
<path d="" fill="#F7BA5A" transform="translate(0,0)"/>
<path d="" fill="#FCB631" transform="translate(0,0)"/>
<path d="" fill="#F2A822" transform="translate(0,0)"/>
<path d="" fill="#F7BD5C" transform="translate(0,0)"/>
<path d="" fill="#FEBA43" transform="translate(0,0)"/>
<path d="" fill="#F9A517" transform="translate(0,0)"/>
<path d="" fill="#F9B542" transform="translate(0,0)"/>
<path d="" fill="#FFB73A" transform="translate(0,0)"/>
<path d="" fill="#FCB649" transform="translate(0,0)"/>
<path d="" fill="#FDB83B" transform="translate(0,0)"/>
<path d="" fill="#F9AF34" transform="translate(0,0)"/>
<path d="" fill="#F6B23D" transform="translate(0,0)"/>
<path d="" fill="#FDBE4D" transform="translate(0,0)"/>
<path d="" fill="#F6B94B" transform="translate(0,0)"/>
<path d="" fill="#FAC061" transform="translate(0,0)"/>
<path d="" fill="#FCBC4E" transform="translate(0,0)"/>
<path d="" fill="#FFA801" transform="translate(0,0)"/>
<path d="" fill="#F9AF38" transform="translate(0,0)"/>
<path d="" fill="#FFC35A" transform="translate(0,0)"/>
<path d="" fill="#FEA504" transform="translate(0,0)"/>
<path d="" fill="#FCBF50" transform="translate(0,0)"/>
<path d="" fill="#FFB52C" transform="translate(0,0)"/>
<path d="" fill="#FFBE4D" transform="translate(0,0)"/>
<path d="" fill="#FFBB41" transform="translate(0,0)"/>
<path d="" fill="#FCBB44" transform="translate(0,0)"/>
<path d="" fill="#FDBB4B" transform="translate(0,0)"/>
<path d="" fill="#FFA910" transform="translate(0,0)"/>
<path d="" fill="#FDC662" transform="translate(0,0)"/>
<path d="" fill="#FFB021" transform="translate(0,0)"/>
<path d="" fill="#FDC864" transform="translate(0,0)"/>
<path d="" fill="#FFB01B" transform="translate(0,0)"/>
<path d="" fill="#FFC965" transform="translate(0,0)"/>
<path d="" fill="#FDB22C" transform="translate(0,0)"/>
<path d="" fill="#FBC365" transform="translate(0,0)"/>
<path d="" fill="#FCB834" transform="translate(0,0)"/>
<path d="" fill="#FDC567" transform="translate(0,0)"/>
<path d="" fill="#FCCA5B" transform="translate(0,0)"/>
<path d="" fill="#FFB024" transform="translate(0,0)"/>
<path d="" fill="#FCBE2C" transform="translate(0,0)"/>
<path d="" fill="#FF9F00" transform="translate(0,0)"/>
<path d="" fill="#FEB736" transform="translate(0,0)"/>
<path d="" fill="#FCD583" transform="translate(0,0)"/>
<path d="" fill="#FDBB40" transform="translate(0,0)"/>
<path d="" fill="#FCDB8F" transform="translate(0,0)"/>
<path d="" fill="#FD9E00" transform="translate(0,0)"/>
<path d="" fill="#FEBA41" transform="translate(0,0)"/>
<path d="" fill="#FEBE33" transform="translate(0,0)"/>
<path d="" fill="#FDCA6E" transform="translate(0,0)"/>
<path d="" fill="#FDBB44" transform="translate(0,0)"/>
<path d="" fill="#FEB21D" transform="translate(0,0)"/>
</svg>
